<?xml version="1.0" standalone="no"?><!DOCTYPE svg PUBLIC "-//W3C//DTD SVG 1.1//EN" "http://www.w3.org/Graphics/SVG/1.1/DTD/svg11.dtd"><svg t="1593078683810" class="icon" viewBox="0 0 1024 1024" version="1.1" xmlns="http://www.w3.org/2000/svg" p-id="3797" width="200" height="200" xmlns:xlink="http://www.w3.org/1999/xlink"><defs><style type="text/css"></style></defs><path d="M928.533333 259.2a21.226667 21.226667 0 0 0-20.736-0.96L682.666667 370.837333V320a106.794667 106.794667 0 0 0-106.666667-106.666667H192a106.794667 106.794667 0 0 0-106.666667 106.666667v384a106.794667 106.794667 0 0 0 106.666667 106.666667h384a106.794667 106.794667 0 0 0 106.666667-106.666667v-50.816l225.130666 112.576A21.333333 21.333333 0 0 0 938.666667 746.666667V277.333333a21.333333 21.333333 0 0 0-10.133334-18.133333zM640 704a64.064 64.064 0 0 1-64 64H192a64.064 64.064 0 0 1-64-64V320a64.064 64.064 0 0 1 64-64h384a64.064 64.064 0 0 1 64 64z m256 8.149333l-213.333333-106.666666v-186.965334l213.333333-106.666666z" fill="#646464" p-id="3798"></path></svg>